<svg xmlns="http://www.w3.org/2000/svg" viewBox="0 0 24 24" role="img" aria-label="Discord">
  <path fill="#000" d="M20.3 4.4A19.8 19.8 0 0 0 15.4 2.9a.1.1 0 0 0-.1 0c-.2.4-.4.8-.6 1.2a18.3 18.3 0 0 0-5.5 0c-.2-.4-.4-.9-.6-1.2a.1.1 0 0 0-.1 0A19.7 19.7 0 0 0 3.7 4.4a.1.1 0 0 0 0 0C.6 9 .1 13.4.5 17.8a.1.1 0 0 0 0 .1 19.9 19.9 0 0 0 6 3 .1.1 0 0 0 .1 0c.5-.6.9-1.3 1.2-2a.1.1 0 0 0 0-.1 13.1 13.1 0 0 1-1.9-.9.1.1 0 0 1 0-.1l.4-.3h.1c3.9 1.8 8.2 1.8 12.1 0h.1l.4.3a.1.1 0 0 1 0 .1 12.3 12.3 0 0 1-1.9.9.1.1 0 0 0 0 .1c.4.7.8 1.4 1.2 2a.1.1 0 0 0 .1 0 19.8 19.8 0 0 0 6-3 .1.1 0 0 0 0-.1c.5-5.2-.8-9.7-3.5-13.4a.1.1 0 0 0-.1 0ZM8.1 15.3c-1.2 0-2.2-1.1-2.2-2.4s1-2.4 2.2-2.4 2.2 1.1 2.2 2.4-1 2.4-2.2 2.4Zm7.9 0c-1.2 0-2.2-1.1-2.2-2.4s1-2.4 2.2-2.4 2.2 1.1 2.2 2.4-1 2.4-2.2 2.4Z"/>
</svg>
